<svg width="772" height="574" viewBox="0 0 772 574" fill="none" xmlns="http://www.w3.org/2000/svg">
<g clip-path="url(#clip0)">
<path opacity="0.1" d="M77.6515 57.4756C72.8467 59.4675 67.9154 62.0243 65.275 66.5061C62.4784 71.2405 62.8131 77.1196 63.3337 82.5973C67.8708 130.105 79.8234 180.631 59.1834 223.665C49.1647 244.543 32.4073 261.273 19.0788 280.233C5.75022 299.193 -4.31314 322.866 1.87512 345.171C9.43193 372.425 37.6361 387.535 56.6472 408.51C69.0906 422.223 77.8152 438.886 89.4256 453.313C101.036 467.739 116.945 480.448 135.481 481.296C162.138 482.522 183.826 459.519 209.963 454.19C236.739 448.734 263.701 462.618 285.412 479.237C307.123 495.856 326.87 515.99 352.166 526.366C380.103 537.834 411.594 536.08 441.003 542.97C467.78 549.251 492.428 562.607 519.011 569.727C545.594 576.847 576.751 576.416 597.346 558.229C624.189 534.445 622.077 492.08 639.221 460.619C655.145 431.387 686.317 413.936 707.299 388.093C745.054 341.581 743.819 270.489 711.762 219.904C679.705 169.319 621.638 138.69 562.262 130.715C535.486 127.125 507.914 127.616 482.172 119.447C413.268 97.596 372.263 19.3026 301.916 3.01072C257.2 -7.32781 213.711 10.5769 175.622 32.6141C142.561 51.7452 112.059 43.2128 77.6515 57.4756Z" fill="#6C63FF"/>
<path d="M144.799 210.955C144.799 210.955 119.414 234.895 92.1693 235.608C80.7285 235.836 69.6703 239.766 60.6553 246.809C56.3941 250.175 52.4504 253.925 48.8738 258.01" stroke="#535461" stroke-width="2" stroke-miterlimit="10"/>
<path d="M31.6926 258.597C35.352 256.739 49.3202 257.973 49.3202 257.973C49.3202 257.973 42.0758 269.976 38.4164 271.834C37.54 272.353 36.5662 272.687 35.5554 272.814C34.5446 272.942 33.5184 272.861 32.5403 272.575C31.5623 272.29 30.6533 271.807 29.8697 271.157C29.0862 270.506 28.4448 269.701 27.9853 268.793C27.5257 267.884 27.2579 266.891 27.1985 265.874C27.139 264.858 27.2891 263.84 27.6395 262.884C27.9899 261.928 28.5331 261.054 29.2355 260.317C29.9378 259.579 30.7843 258.994 31.7224 258.597H31.6926Z" fill="#6C63FF"/>
<path d="M46.3971 237.377C50.4804 237.808 61.533 246.43 61.533 246.43C61.533 246.43 48.8887 252.569 44.8426 252.145C42.9495 251.86 41.2397 250.855 40.0689 249.342C38.8981 247.828 38.3564 245.922 38.5567 244.019C38.757 242.116 39.6837 240.364 41.1441 239.127C42.6044 237.89 44.486 237.263 46.3971 237.377V237.377Z" fill="#6C63FF"/>
<path d="M81.2656 220.275C84.568 222.706 89.7596 235.727 89.7596 235.727C89.7596 235.727 75.769 234.665 72.4666 232.242C70.9782 231.04 70.0105 229.311 69.7647 227.415C69.519 225.518 70.0141 223.6 71.1472 222.059C72.2803 220.518 73.9641 219.473 75.8486 219.141C77.7331 218.809 79.6732 219.215 81.2656 220.275V220.275Z" fill="#6C63FF"/>
<path d="M110.563 213.281C114.23 215.117 121.549 227.076 121.549 227.076C121.549 227.076 107.58 228.391 103.914 226.556C102.988 226.152 102.155 225.564 101.465 224.828C100.774 224.092 100.241 223.224 99.8967 222.275C99.5529 221.327 99.406 220.318 99.4648 219.311C99.5236 218.304 99.787 217.319 100.239 216.417C100.691 215.515 101.322 214.714 102.093 214.064C102.865 213.413 103.761 212.926 104.727 212.633C105.693 212.34 106.708 212.246 107.712 212.357C108.715 212.469 109.685 212.783 110.563 213.281V213.281Z" fill="#6C63FF"/>
<path d="M69.3054 259.964C70.5252 256.048 66.9551 242.491 66.9551 242.491C66.9551 242.491 56.3339 251.647 55.1141 255.564C54.7704 256.51 54.6222 257.515 54.6787 258.519C54.7352 259.524 54.995 260.506 55.4425 261.407C55.89 262.308 56.5159 263.109 57.2822 263.761C58.0485 264.413 58.9393 264.903 59.9007 265.201C60.8621 265.499 61.874 265.599 62.8751 265.495C63.8763 265.391 64.8459 265.085 65.7251 264.595C66.6044 264.105 67.3751 263.443 67.9905 262.647C68.6059 261.851 69.0533 260.938 69.3054 259.964V259.964Z" fill="#6C63FF"/>
<path d="M103.467 251.321C103.467 247.218 95.9924 235.356 95.9924 235.356C95.9924 235.356 88.5993 247.248 88.6067 251.365C88.6126 253.336 89.4019 255.225 90.8009 256.614C92.2 258.004 94.0942 258.781 96.0668 258.775C98.0394 258.769 99.9289 257.981 101.32 256.583C102.71 255.185 103.488 253.292 103.482 251.321H103.467Z" fill="#6C63FF"/>
<path d="M135.517 238.418C136.201 234.375 130.846 221.42 130.846 221.42C130.846 221.42 121.541 231.915 120.864 235.958C120.636 237.855 121.147 239.767 122.292 241.297C123.437 242.827 125.127 243.858 127.013 244.175C128.898 244.493 130.834 244.073 132.417 243.002C134.001 241.931 135.111 240.292 135.517 238.425V238.418Z" fill="#6C63FF"/>
<path d="M177.786 147.556C177.786 147.556 147.209 130.774 138.12 105.065C134.386 94.2543 127.243 84.9461 117.763 78.5386C113.239 75.5305 108.449 72.9431 103.452 70.8088" stroke="#535461" stroke-width="2" stroke-miterlimit="10"/>
<path d="M97.651 54.6432C100.544 57.5493 103.661 71.2176 103.661 71.2176C103.661 71.2176 90.0049 68.0216 87.1116 65.1081C85.8339 63.6902 85.1508 61.8356 85.2038 59.9284C85.2568 58.0211 86.0418 56.2072 87.3962 54.8623C88.7506 53.5175 90.5708 52.7446 92.4797 52.7038C94.3887 52.6631 96.2402 53.3575 97.651 54.6432V54.6432Z" fill="#6C63FF"/>
<path d="M122.382 62.0981C123.23 66.1116 118.417 79.2744 118.417 79.2744C118.417 79.2744 108.696 69.1738 107.848 65.1528C107.597 64.1804 107.545 63.1671 107.696 62.1741C107.847 61.181 108.198 60.229 108.728 59.3753C109.257 58.5216 109.955 57.7841 110.778 57.2073C111.6 56.6304 112.532 56.2262 113.515 56.0191C114.499 55.812 115.514 55.8062 116.5 56.0022C117.486 56.1981 118.422 56.5917 119.251 57.1592C120.081 57.7266 120.786 58.4562 121.326 59.3038C121.865 60.1514 122.227 61.0994 122.389 62.0906L122.382 62.0981Z" fill="#6C63FF"/>
<path d="M149.381 90.0367C148.087 93.9238 137.28 102.865 137.28 102.865C137.28 102.865 133.992 89.2414 135.286 85.3468C135.909 83.4742 137.25 81.9253 139.015 81.0409C140.78 80.1565 142.825 80.009 144.699 80.6309C146.573 81.2528 148.123 82.5932 149.008 84.3571C149.893 86.121 150.041 88.164 149.418 90.0367H149.381Z" fill="#6C63FF"/>
<path d="M165.06 115.716C164.443 119.766 155.301 130.402 155.301 130.402C155.301 130.402 149.753 117.529 150.37 113.478C150.473 112.477 150.778 111.508 151.267 110.628C151.756 109.748 152.419 108.977 153.216 108.361C154.012 107.745 154.925 107.297 155.9 107.044C156.874 106.791 157.89 106.738 158.886 106.889C159.882 107.041 160.836 107.392 161.692 107.923C162.548 108.454 163.286 109.153 163.864 109.977C164.441 110.802 164.845 111.735 165.05 112.72C165.256 113.705 165.259 114.722 165.06 115.708V115.716Z" fill="#6C63FF"/>
<path d="M107.908 90.8319C112.013 90.7873 123.825 83.2211 123.825 83.2211C123.825 83.2211 111.842 75.9373 107.737 75.9819C105.764 76.0046 103.881 76.8094 102.502 78.2192C101.123 79.6291 100.362 81.5286 100.384 83.4998C100.407 85.471 101.212 87.3525 102.623 88.7303C104.034 90.1081 105.935 90.8695 107.908 90.8468V90.8319Z" fill="#6C63FF"/>
<path d="M126.621 120.666C130.519 119.395 139.526 108.648 139.526 108.648C139.526 108.648 125.907 105.281 122.01 106.552C121.048 106.826 120.152 107.291 119.374 107.92C118.596 108.548 117.953 109.327 117.484 110.209C117.014 111.092 116.728 112.06 116.641 113.056C116.555 114.051 116.67 115.054 116.98 116.004C117.29 116.954 117.789 117.832 118.447 118.585C119.105 119.338 119.907 119.951 120.807 120.387C121.707 120.823 122.686 121.073 123.685 121.122C124.684 121.171 125.683 121.019 126.621 120.673V120.666Z" fill="#6C63FF"/>
<path d="M148.786 147.17C152.847 146.575 163.543 137.508 163.543 137.508C163.543 137.508 150.69 131.889 146.636 132.483C145.638 132.586 144.671 132.89 143.793 133.376C142.915 133.862 142.145 134.521 141.529 135.312C140.912 136.104 140.463 137.012 140.207 137.982C139.951 138.951 139.894 139.963 140.04 140.955C140.186 141.948 140.531 142.9 141.055 143.756C141.578 144.611 142.27 145.352 143.088 145.933C143.906 146.514 144.833 146.924 145.813 147.138C146.794 147.352 147.808 147.365 148.793 147.177L148.786 147.17Z" fill="#6C63FF"/>
<path d="M388.209 554.765C536.911 554.765 657.458 434.305 657.458 285.71C657.458 137.116 536.911 16.656 388.209 16.656C239.507 16.656 118.96 137.116 118.96 285.71C118.96 434.305 239.507 554.765 388.209 554.765Z" fill="url(#paint0_linear)"/>
<path d="M388.209 550.305C534.446 550.305 652.995 431.842 652.995 285.71C652.995 139.579 534.446 21.1155 388.209 21.1155C241.972 21.1155 123.423 139.579 123.423 285.71C123.423 431.842 241.972 550.305 388.209 550.305Z" fill="#6C63FF"/>
<path d="M388.209 496.048C504.459 496.048 598.699 401.877 598.699 285.71C598.699 169.544 504.459 75.3723 388.209 75.3723C271.959 75.3723 177.719 169.544 177.719 285.71C177.719 401.877 271.959 496.048 388.209 496.048Z" fill="#DDE1EC"/>
<path opacity="0.3" d="M394.159 112.535H382.259V298.346H394.159V112.535Z" fill="#535461"/>
<g opacity="0.1">
<path opacity="0.1" d="M568.948 281.251H400.854V296.116H568.948V281.251Z" fill="black"/>
<path opacity="0.1" d="M282.177 225.637L275.276 238.806L381.043 294.153L387.944 280.985L282.177 225.637Z" fill="black"/>
<path opacity="0.1" d="M388.209 310.981C400.533 310.981 410.523 300.998 410.523 288.684C410.523 276.369 400.533 266.386 388.209 266.386C375.886 266.386 365.896 276.369 365.896 288.684C365.896 300.998 375.886 310.981 388.209 310.981Z" fill="black"/>
</g>
<path d="M568.948 278.278H400.853V293.143H568.948V278.278Z" fill="#535461"/>
<path d="M387.993 278.029L282.226 222.681L275.325 235.85L381.092 291.197L387.993 278.029Z" fill="#535461"/>
<path d="M388.209 308.008C400.533 308.008 410.523 298.025 410.523 285.71C410.523 273.396 400.533 263.413 388.209 263.413C375.886 263.413 365.896 273.396 365.896 285.71C365.896 298.025 375.886 308.008 388.209 308.008Z" fill="#535461"/>
<g opacity="0.1">
<path opacity="0.1" d="M194.067 310.981C194.067 194.812 288.304 100.643 404.557 100.643C437.187 100.614 469.374 108.177 498.571 122.734C527.768 137.291 553.172 158.442 572.771 184.51C536.95 119.462 467.779 75.3723 388.194 75.3723C271.941 75.3723 177.704 169.541 177.704 285.71C177.636 331.347 192.489 375.756 220.003 412.181C202.94 381.179 194.017 346.362 194.067 310.981V310.981Z" fill="black"/>
</g>
<path d="M582.693 130.982C580.194 128.581 559.16 144.36 559.16 144.36C559.16 144.36 551.67 145.728 553.455 150.864C555.24 155.999 545.608 184.763 545.608 184.763L541.688 179.285C542.067 172.856 540.297 168.3 538.572 165.461C538.43 165.231 538.289 165.008 538.148 164.799L538.832 164.562C538.572 161.053 532.956 155.71 529.974 153.093C529.974 152.714 529.974 152.35 529.974 151.964C530.16 147.772 531.84 143.349 529.974 139.551C527.861 135.218 521.68 133.041 521.16 128.284C520.847 125.445 522.766 122.88 523.614 120.145C525.637 113.605 521.435 106.93 517.419 101.297C516.058 99.1844 514.403 97.2773 512.502 95.6331C510.692 94.3105 508.704 93.2497 506.597 92.4818C500.713 90.1034 494.696 88.9068 488.627 87.2791C482.803 85.7331 477.433 84.9973 471.52 86.9372C470.117 87.3153 468.835 88.0502 467.801 89.0703C466.395 90.646 466.209 92.8906 465.287 94.771C463.799 97.796 460.594 99.602 457.76 101.542C454.926 103.482 452.085 106.143 452.07 109.487C452.07 114.237 457.5 117.224 459.314 121.647C461.01 125.764 459.314 130.35 458.37 134.691C457.975 136.093 457.937 137.573 458.258 138.994C458.633 140.053 459.197 141.036 459.924 141.893C461.047 143.379 462.252 144.762 463.45 146.174L462.899 146.389C452.918 145.364 446.499 158.028 446.499 158.028C446.96 158.125 447.399 158.237 447.83 158.363L447.406 158.913C444.39 162.827 441.925 167.136 440.08 171.719L431.899 182.674C431.899 182.674 430.114 155.278 434.398 149.117C438.682 142.955 430.478 139.187 430.478 139.187C430.478 139.187 412.627 119.328 410.15 121.037C407.674 122.747 416.212 144.323 423.702 147.749C423.702 147.749 424.446 154.595 422.958 159.047C422.058 161.864 417.254 191.579 417.254 191.579C417.254 191.579 412.977 216.574 432.59 204.214C445.331 196.201 453.565 182.407 457.76 173.741C458.052 173.131 458.328 172.549 458.586 171.994C458.779 172.913 458.911 173.844 458.98 174.781L459.723 203.418C459.912 210.502 458.365 217.524 455.216 223.872L446.477 241.584L447.451 241.881L446.864 242.729C441.107 251.194 431.318 270.229 451.468 279.928L478.244 283.354L476.816 290.2C476.816 290.2 465.763 311.085 462.55 325.467C460.554 334.274 457.437 342.789 453.275 350.804L454.1 351.242C453.929 351.435 453.751 351.636 453.58 351.844C451.956 353.669 450.883 355.916 450.486 358.325L446.856 363.469C446.856 363.469 445.428 384.696 448.284 389.839C449.846 392.648 455.03 394.432 459.441 395.473C465.986 397.026 471.267 390.27 467.794 384.703L467.749 384.629H467.682C466.938 381.173 464.662 370.448 465.406 366.375C465.614 365.215 465.808 364.063 465.904 362.889C466.083 361.346 466.553 359.85 467.288 358.481C467.407 358.251 467.533 358.028 467.66 357.805L468.046 357.969C469.244 358.481 470.427 358.965 471.55 359.388C469.809 360.971 468.574 364.249 470.062 370.99C470.062 370.99 470.203 387.854 471.49 390.508C472.777 393.161 487.176 396.669 489.676 393.934C492.175 391.199 488.069 381.775 488.069 381.775L487.943 381.864C487.117 376.401 486.098 366.62 488.605 362.77C489.616 361.217 490.598 359.611 491.475 358.11L492.018 357.181C496.675 359.5 501.598 361.246 504.291 360.035C504.291 360.035 516.057 332.639 515.343 329.22C514.629 325.801 533.529 287.1 533.529 287.1C533.529 287.1 549.572 269.262 529.966 256.969C523.741 253.052 519.204 250.421 515.909 248.645L513.149 234.226C511.731 226.667 511.984 218.889 513.893 211.438L516.868 200.096L517.114 199.13C517.114 199.13 524.604 183.722 524.246 176.528C524.219 175.969 524.282 175.409 524.432 174.87C524.514 175.212 524.604 175.569 524.7 175.941C526.668 183.418 529.26 190.718 532.45 197.762C538.14 210.591 546.582 209.572 551.209 207.752C552.199 207.369 553.078 206.746 553.768 205.939C554.457 205.132 554.935 204.166 555.158 203.129C556.824 195.146 561.398 172.782 561.688 166.606C561.948 161.776 562.544 156.97 563.473 152.224C575.21 145.364 585.192 133.382 582.693 130.982Z" fill="url(#paint1_linear)"/>
<path d="M495.38 350.403C495.38 350.403 493.811 353.546 491.662 357.322C490.821 358.809 489.884 360.407 488.924 361.945C485.525 367.378 488.924 384.688 488.924 384.688L481.487 385.707L474.049 381.99L472.688 369.43V360.243L481.167 350.767L484.886 346.664L495.38 350.403Z" fill="#F8BDC5"/>
<g opacity="0.1">
<path opacity="0.1" d="M495.38 350.403C495.38 350.403 493.811 353.546 491.661 357.322C488.378 355.569 485.203 353.618 482.156 351.48L481.501 351.019L481.152 350.767L484.871 346.664L495.38 350.403Z" fill="black"/>
</g>
<path d="M531.744 286.914C531.744 286.914 513.737 325.273 514.421 328.67C515.105 332.066 503.889 359.225 503.889 359.225C501.331 360.429 496.63 358.697 492.197 356.4C488.854 354.62 485.625 352.634 482.528 350.454L481.873 349.994L481.479 349.711L511.037 267.895L484.886 248.727L482.952 247.307L471.26 238.685L506.961 245.137C506.961 245.137 508.203 244.981 514.771 248.652C517.924 250.414 522.305 253.052 528.36 257.021C547.021 269.262 531.744 286.914 531.744 286.914Z" fill="#5E52AD"/>
<g opacity="0.03">
<path opacity="0.03" d="M531.744 286.914C531.744 286.914 513.737 325.273 514.421 328.67C515.105 332.066 503.889 359.225 503.889 359.225C501.331 360.429 496.63 358.697 492.197 356.4C488.854 354.62 485.625 352.634 482.528 350.454L481.873 349.994L481.479 349.711L511.037 267.895L484.886 248.727L482.952 247.307L471.26 238.685L506.961 245.137C506.961 245.137 508.203 244.981 514.771 248.652C517.924 250.414 522.305 253.052 528.36 257.021C547.021 269.262 531.744 286.914 531.744 286.914Z" fill="black"/>
</g>
<path d="M477.039 357.188C477.039 357.188 468.203 355.828 471.267 370.091C471.267 370.091 471.401 386.814 472.628 389.415C473.856 392.017 487.578 395.525 489.951 392.812C492.324 390.099 488.419 380.764 488.419 380.764C488.419 380.764 478.4 388.063 475.678 380.251C472.956 372.44 477.039 357.188 477.039 357.188Z" fill="#5D3E53"/>
<path d="M470.917 354.475C469.953 355.393 469.169 356.482 468.604 357.686C467.902 359.051 467.456 360.532 467.288 362.056C467.199 363.216 467.013 364.368 466.819 365.513C465.971 370.351 469.222 384.688 469.222 384.688L456.31 386.725L451.557 381.634L450.538 370.433C451.806 366.592 452.493 362.584 452.576 358.541C452.576 355.62 454.063 353.011 455.551 351.109C456.559 349.839 457.715 348.694 458.995 347.697C458.995 347.697 473.64 352.097 470.917 354.475Z" fill="#F8BDC5"/>
<g opacity="0.1">
<path opacity="0.1" d="M470.917 354.475C469.953 355.393 469.169 356.482 468.604 357.686C463.316 355.3 457.76 352.29 455.737 351.175L455.581 351.094C456.589 349.824 457.745 348.679 459.024 347.682C459.024 347.682 473.64 352.097 470.917 354.475Z" fill="black"/>
</g>
<path d="M512.71 276.732C512.71 276.732 504.224 292.689 498.779 305.927C495.209 314.623 487.831 335.329 483.16 348.515L482.476 350.462C480.423 356.296 479.054 360.243 479.054 360.243C478.149 360.249 477.249 360.116 476.384 359.849C475.581 359.633 474.681 359.344 473.721 358.987L472.643 358.578C471.572 358.162 470.412 357.679 469.303 357.173C463.904 354.765 458.147 351.629 456.057 350.484L455.268 350.046C459.255 342.064 462.23 333.618 464.127 324.902C467.184 310.646 477.716 289.969 477.716 289.969L479.077 283.176L453.595 279.779C434.398 270.191 443.725 251.291 449.206 242.9C450.141 241.443 451.152 240.036 452.234 238.685L472.621 243.145C472.621 243.145 475.834 244.17 482.974 247.329L486.254 248.816C490.256 250.652 495.18 253.015 501.13 256.047C521.197 266.185 512.71 276.732 512.71 276.732Z" fill="#5E52AD"/>
<path d="M469.095 383.67C469.822 384.894 470.17 386.306 470.096 387.727C470.021 389.149 469.527 390.516 468.676 391.658C467.825 392.799 466.655 393.663 465.313 394.141C463.972 394.619 462.518 394.689 461.137 394.343C456.964 393.31 452.018 391.541 450.53 388.754C447.816 383.663 449.169 362.614 449.169 362.614L452.739 357.352C452.739 357.352 450.873 380.608 455.291 382.622C459.709 384.636 469.051 383.566 469.051 383.566L469.095 383.67Z" fill="#5D3E53"/>
<path d="M472.71 88.4461C471.353 88.8234 470.121 89.5545 469.14 90.5644C467.801 92.1252 467.652 94.3549 466.745 96.2205C465.332 99.1934 462.282 101.014 459.575 102.91C456.867 104.805 454.167 107.473 454.153 110.788C454.153 115.5 459.359 118.458 461.055 122.836C462.669 126.924 461.055 131.465 460.155 135.768C459.78 137.162 459.744 138.625 460.051 140.035C460.406 141.081 460.945 142.055 461.642 142.911C464.923 147.371 468.998 151.325 471.193 156.401C472.859 160.258 473.32 164.517 473.759 168.702C474.391 174.722 475.023 180.854 473.878 186.8C473.766 187.155 473.766 187.537 473.878 187.892C474.073 188.233 474.38 188.496 474.748 188.635C476.912 189.686 479.267 190.289 481.67 190.407C484.074 190.526 486.476 190.157 488.733 189.324C490.991 188.491 493.056 187.21 494.805 185.559C496.555 183.908 497.952 181.921 498.913 179.717C500.401 176.35 500.974 172.284 503.919 170.099C504.263 169.815 504.676 169.628 505.116 169.556C505.811 169.576 506.484 169.801 507.05 170.203C510.873 172.269 515.507 172.329 519.769 171.481C522.342 170.969 524.975 170.054 526.679 168.048C530.033 164.064 528.166 158.11 528.389 152.915C528.568 148.76 530.167 144.375 528.389 140.614C526.381 136.318 520.483 134.163 519.992 129.466C519.695 126.656 521.524 124.107 522.335 121.402C524.261 114.913 520.26 108.298 516.437 102.716C515.151 100.634 513.576 98.7449 511.758 97.1049C510.044 95.8001 508.15 94.7488 506.135 93.9833C500.535 91.6272 494.823 90.438 489.028 88.8326C483.48 87.2495 478.37 86.5137 472.71 88.4461Z" fill="#85555C"/>
<path d="M501.16 185.41H481.449V153.495C482.035 150.43 482.378 147.323 482.476 144.204C482.476 143.156 482.476 142.086 482.476 141.008C482.29 137.203 481.501 133.405 479.434 131.086C473.997 124.977 497.099 125.995 497.099 125.995C497.807 128.8 498.727 131.548 499.851 134.215C501.524 138.376 503.751 142.294 506.47 145.862C508.863 149.036 511.929 151.643 515.448 153.495C529.014 160.288 501.16 185.41 501.16 185.41Z" fill="#F8BDC5"/>
<g opacity="0.1">
<path opacity="0.1" d="M499.828 134.215C497.827 136.823 495.151 138.834 492.088 140.031C489.026 141.228 485.694 141.566 482.454 141.008C482.268 137.203 481.479 133.405 479.412 131.086C473.974 124.977 497.076 125.995 497.076 125.995C497.785 128.8 498.705 131.548 499.828 134.215V134.215Z" fill="black"/>
</g>
<path d="M485.525 140.265C495.47 140.265 503.532 132.209 503.532 122.271C503.532 112.333 495.47 104.277 485.525 104.277C475.58 104.277 467.518 112.333 467.518 122.271C467.518 132.209 475.58 140.265 485.525 140.265Z" fill="#F8BDC5"/>
<path d="M560.268 153.16C559.384 157.869 558.817 162.631 558.572 167.416C558.297 173.533 553.938 195.711 552.347 203.627C552.146 204.642 551.697 205.591 551.041 206.391C550.384 207.191 549.54 207.817 548.583 208.212C544.165 210.018 536.132 211.029 530.732 198.312C527.688 191.315 525.218 184.082 523.347 176.684C522.685 174.197 522.188 171.67 521.859 169.118L533.76 162.666C534.88 163.714 535.828 164.93 536.571 166.271C538.215 169.088 539.903 173.607 539.546 179.977L543.265 185.41C543.265 185.41 552.436 156.891 550.703 151.8C548.97 146.709 556.14 145.349 556.14 145.349C556.14 145.349 576.185 129.741 578.565 132.112C580.945 134.483 571.477 146.367 560.268 153.16Z" fill="#F8BDC5"/>
<path d="M462.766 166.739C461.837 169.395 460.77 172 459.567 174.543C455.566 183.143 447.726 196.841 435.588 204.764C416.904 216.983 420.98 192.203 420.98 192.203C420.98 192.203 425.554 162.741 426.417 159.954C427.778 155.539 427.094 148.753 427.094 148.753C419.961 145.356 411.809 123.973 414.182 122.271C416.555 120.569 433.52 140.265 433.52 140.265C433.52 140.265 441.337 143.981 437.239 150.113C433.141 156.245 434.859 183.381 434.859 183.381L442.721 172.537C444.47 168.012 446.819 163.742 449.705 159.842C451.192 157.813 452.234 156.587 452.234 156.587L462.766 166.739Z" fill="#F8BDC5"/>
<g opacity="0.1">
<path opacity="0.1" d="M536.579 166.271C534.079 167.193 524.403 171.095 523.332 176.677C522.67 174.19 522.173 171.662 521.844 169.11L533.745 162.659C534.873 163.707 535.83 164.926 536.579 166.271Z" fill="black"/>
</g>
<g opacity="0.1">
<path opacity="0.1" d="M462.766 166.739C461.837 169.395 460.77 172 459.567 174.544C459.106 171.184 457.21 162.592 449.705 159.82C451.192 157.791 452.234 156.564 452.234 156.564L462.766 166.739Z" fill="black"/>
</g>
<g opacity="0.1">
<path opacity="0.1" d="M501.16 185.41H481.449V153.495C482.035 150.43 482.378 147.323 482.476 144.204C486.529 148.114 485.525 154.171 485.525 154.171L496.057 177.955L501.16 156.928L499.464 154.216L506.455 145.906C508.848 149.081 511.914 151.687 515.433 153.539C529.014 160.288 501.16 185.41 501.16 185.41Z" fill="black"/>
</g>
<g opacity="0.1">
<path opacity="0.1" d="M515.083 250.577C515.083 250.577 499.642 249.351 486.247 248.771L484.901 248.712C482.997 248.637 481.182 248.578 479.404 248.533C466.403 248.221 451.698 243.68 449.199 242.885C450.137 241.433 451.15 240.031 452.234 238.685L472.621 243.145C472.621 243.145 475.834 244.17 482.974 247.329L471.26 238.685L506.961 245.137C506.961 245.137 508.203 244.981 514.771 248.652L515.083 250.577Z" fill="black"/>
</g>
<path d="M501.16 158.252L499.464 155.539L507.006 146.523C507.006 146.523 522.558 154.141 526.634 152.469C526.634 152.469 536.489 160.645 536.824 165.372C536.824 165.372 522.558 170.121 522.893 177.264C523.228 184.406 516.125 199.665 516.125 199.665L513.149 211.869C511.319 219.265 511.065 226.963 512.406 234.464L515.12 249.574C515.12 249.574 493.714 247.879 479.419 247.537C465.124 247.196 448.842 241.77 448.842 241.77L457.18 224.237C460.187 217.909 461.659 210.963 461.479 203.961L460.735 175.577C460.735 175.577 460.058 161.321 448.835 158.943C448.835 158.943 454.949 146.382 464.454 147.4C464.454 147.4 478.303 141.625 482.416 145.527C486.53 149.429 485.518 155.546 485.518 155.546L496.05 179.33L501.16 158.252Z" fill="#ED677B"/>
<g opacity="0.1">
<path opacity="0.1" d="M472.531 118.562C475.261 118.562 477.403 115.671 480.133 115.82C481.546 115.894 482.758 116.793 483.926 117.604C488.339 120.657 493.249 122.92 498.437 124.293C500.453 124.828 502.588 125.229 504.611 124.739C506.634 124.248 508.53 122.658 508.761 120.584C508.818 119.67 508.696 118.754 508.404 117.886C506.114 109.913 500.932 103.079 493.87 98.7177C491.044 96.9859 487.593 95.6629 484.462 96.7481C481.635 97.7217 479.813 100.368 477.768 102.545C476.226 104.176 474.475 105.596 472.561 106.767C471.074 107.666 468.842 108.253 467.987 109.904C466.373 112.981 468.909 118.533 472.531 118.562Z" fill="black"/>
</g>
<path d="M472.531 117.886C475.261 117.886 477.403 114.995 480.133 115.143C481.546 115.218 482.758 116.117 483.926 116.927C488.339 119.981 493.249 122.244 498.437 123.616C500.453 124.152 502.588 124.553 504.611 124.062C506.634 123.572 508.53 121.981 508.761 119.908C508.818 118.994 508.696 118.077 508.404 117.21C506.114 109.236 500.932 102.402 493.87 98.0414C491.044 96.3097 487.593 94.9867 484.462 96.0718C481.635 97.0455 479.813 99.6914 477.768 101.869C476.226 103.5 474.475 104.919 472.561 106.091C471.074 106.99 468.842 107.577 467.987 109.227C466.373 112.334 468.909 117.849 472.531 117.886Z" fill="#85555C"/>
<path opacity="0.05" d="M464.298 195.421C464.298 195.421 480.944 201.531 491.818 196.781L497.255 197.123C497.255 197.123 506.292 203.456 515.849 200.624" fill="black"/>
<path opacity="0.05" d="M543.116 185.239C543.116 185.239 540.402 191.69 541.755 193.727Z" fill="black"/>
<path opacity="0.05" d="M434.74 183.202C434.74 183.202 436.101 189.653 434.74 191.69Z" fill="black"/>
<path d="M716.499 330.208C716.499 330.208 685.379 361.306 702.947 407.446C720.516 453.587 672.839 530.32 672.839 530.32C672.839 530.32 673.352 530.245 674.327 530.082C738.24 518.807 769.992 445.768 734.454 391.504C721.207 371.325 710.363 347.66 716.499 330.208Z" fill="#6C63FF"/>
<path opacity="0.1" d="M716.499 330.729C716.499 330.729 685.379 361.826 702.947 407.967C720.516 454.107 672.839 530.832 672.839 530.832C672.839 530.832 673.352 530.758 674.327 530.595C738.24 519.32 769.992 446.281 734.454 392.017C721.207 371.845 710.363 348.18 716.499 330.729Z" fill="black"/>
<path d="M716.499 330.208C716.499 330.208 698.931 368.322 716.499 399.419C734.067 430.517 719.474 517.781 672.832 530.32" stroke="#535461" stroke-miterlimit="10"/>
<path d="M771.926 455.98C771.926 455.98 736.418 450.332 733.182 482.128C729.947 513.924 664.881 518.331 664.881 518.331L666.101 519.141C719.802 554.371 771.145 541.58 763.402 494.8C760.546 477.415 760.784 459.949 771.926 455.98Z" fill="#6C63FF"/>
<path d="M771.926 455.98C771.926 455.98 744.361 462.023 746.637 487.07C748.913 512.117 705.729 542.137 664.91 518.338" stroke="#535461" stroke-miterlimit="10"/>
<path d="M740.687 519.49C740.687 519.49 712.721 513.901 705.261 506.446C697.801 498.992 664.241 485.955 660.515 495.298C656.788 504.64 610.176 536.288 641.868 541.877C673.561 547.466 716.447 549.309 725.767 545.593C735.086 541.877 740.687 519.49 740.687 519.49Z" fill="#A8A8A8"/>
<path opacity="0.2" d="M641.868 538.391C673.568 543.98 716.447 545.824 725.767 542.107C732.87 539.268 737.801 525.637 739.75 519.29L740.68 519.483C740.68 519.483 735.086 541.84 725.767 545.564C716.447 549.287 673.561 547.429 641.868 541.847C632.72 540.234 630.102 536.444 631.091 531.65C631.864 534.779 635.055 537.187 641.868 538.391Z" fill="black"/>
</g>
<defs>
<linearGradient id="paint0_linear" x1="388.209" y1="554.765" x2="388.209" y2="16.656" gradientUnits="userSpaceOnUse">
<stop stop-color="#808080" stop-opacity="0.25"/>
<stop offset="0.54" stop-color="#808080" stop-opacity="0.12"/>
<stop offset="1" stop-color="#808080" stop-opacity="0.1"/>
</linearGradient>
<linearGradient id="paint1_linear" x1="130164" y1="184890" x2="130164" y2="55643.5" gradientUnits="userSpaceOnUse">
<stop stop-color="#808080" stop-opacity="0.25"/>
<stop offset="0.54" stop-color="#808080" stop-opacity="0.12"/>
<stop offset="1" stop-color="#808080" stop-opacity="0.1"/>
</linearGradient>
<clipPath id="clip0">
<rect width="772" height="574" fill="white"/>
</clipPath>
</defs>
</svg>
